<svg width="145" height="32" viewBox="0 0 145 32" fill="#FFFFFF" xmlns="http://www.w3.org/2000/svg">
<path d="M0.11 13.53C0.11 11.49 0.58 9.66 1.52 8.04C2.48 6.42 3.77 5.16 5.39 4.26C7.03 3.34 8.82 2.88 10.76 2.88C12.98 2.88 14.95 3.43 16.67 4.53C18.41 5.61 19.67 7.15 20.45 9.15H16.34C15.8 8.05 15.05 7.23 14.09 6.69C13.13 6.15 12.02 5.88 10.76 5.88C9.38 5.88 8.15 6.19 7.07 6.81C5.99 7.43 5.14 8.32 4.52 9.48C3.92 10.64 3.62 11.99 3.62 13.53C3.62 15.07 3.92 16.42 4.52 17.58C5.14 18.74 5.99 19.64 7.07 20.28C8.15 20.9 9.38 21.21 10.76 21.21C12.02 21.21 13.13 20.94 14.09 20.4C15.05 19.86 15.8 19.04 16.34 17.94H20.45C19.67 19.94 18.41 21.48 16.67 22.56C14.95 23.64 12.98 24.18 10.76 24.18C8.8 24.18 7.01 23.73 5.39 22.83C3.77 21.91 2.48 20.64 1.52 19.02C0.58 17.4 0.11 15.57 0.11 13.53ZM27.8731 9.87C28.3731 9.03 29.0331 8.38 29.8531 7.92C30.6931 7.44 31.6831 7.2 32.8231 7.2V10.74H31.9531C30.6131 10.74 29.5931 11.08 28.8931 11.76C28.2131 12.44 27.8731 13.62 27.8731 15.3V24H24.4531V7.47H27.8731V9.87ZM37.7068 5.28C37.0868 5.28 36.5668 5.07 36.1468 4.65C35.7268 4.23 35.5168 3.71 35.5168 3.09C35.5168 2.47 35.7268 1.95 36.1468 1.53C36.5668 1.11 37.0868 0.899999 37.7068 0.899999C38.3068 0.899999 38.8168 1.11 39.2368 1.53C39.6568 1.95 39.8668 2.47 39.8668 3.09C39.8668 3.71 39.6568 4.23 39.2368 4.65C38.8168 5.07 38.3068 5.28 37.7068 5.28ZM39.3868 7.47V24H35.9668V7.47H39.3868ZM47.297 9.9C47.877 9.14 48.667 8.5 49.667 7.98C50.667 7.46 51.797 7.2 53.057 7.2C54.497 7.2 55.807 7.56 56.987 8.28C58.187 8.98 59.127 9.97 59.807 11.25C60.487 12.53 60.827 14 60.827 15.66C60.827 17.32 60.487 18.81 59.807 20.13C59.127 21.43 58.187 22.45 56.987 23.19C55.807 23.91 54.497 24.27 53.057 24.27C51.797 24.27 50.677 24.02 49.697 23.52C48.717 23 47.917 22.36 47.297 21.6V31.86H43.877V7.47H47.297V9.9ZM57.347 15.66C57.347 14.52 57.107 13.54 56.627 12.72C56.167 11.88 55.547 11.25 54.767 10.83C54.007 10.39 53.187 10.17 52.307 10.17C51.447 10.17 50.627 10.39 49.847 10.83C49.087 11.27 48.467 11.91 47.987 12.75C47.527 13.59 47.297 14.58 47.297 15.72C47.297 16.86 47.527 17.86 47.987 18.72C48.467 19.56 49.087 20.2 49.847 20.64C50.627 21.08 51.447 21.3 52.307 21.3C53.187 21.3 54.007 21.08 54.767 20.64C55.547 20.18 56.167 19.52 56.627 18.66C57.107 17.8 57.347 16.8 57.347 15.66ZM68.199 10.26V19.41C68.199 20.03 68.339 20.48 68.619 20.76C68.919 21.02 69.419 21.15 70.119 21.15H72.219V24H69.519C67.979 24 66.799 23.64 65.979 22.92C65.159 22.2 64.749 21.03 64.749 19.41V10.26H62.799V7.47H64.749V3.36H68.199V7.47H72.219V10.26H68.199ZM82.5411 24.27C80.9811 24.27 79.5711 23.92 78.3111 23.22C77.0511 22.5 76.0611 21.5 75.3411 20.22C74.6211 18.92 74.2611 17.42 74.2611 15.72C74.2611 14.04 74.6311 12.55 75.3711 11.25C76.1111 9.95 77.1211 8.95 78.4011 8.25C79.6811 7.55 81.1111 7.2 82.6911 7.2C84.2711 7.2 85.7011 7.55 86.9811 8.25C88.2611 8.95 89.2711 9.95 90.0111 11.25C90.7511 12.55 91.1211 14.04 91.1211 15.72C91.1211 17.4 90.7411 18.89 89.9811 20.19C89.2211 21.49 88.1811 22.5 86.8611 23.22C85.5611 23.92 84.1211 24.27 82.5411 24.27ZM82.5411 21.3C83.4211 21.3 84.2411 21.09 85.0011 20.67C85.7811 20.25 86.4111 19.62 86.8911 18.78C87.3711 17.94 87.6111 16.92 87.6111 15.72C87.6111 14.52 87.3811 13.51 86.9211 12.69C86.4611 11.85 85.8511 11.22 85.0911 10.8C84.3311 10.38 83.5111 10.17 82.6311 10.17C81.7511 10.17 80.9311 10.38 80.1711 10.8C79.4311 11.22 78.8411 11.85 78.4011 12.69C77.9611 13.51 77.7411 14.52 77.7411 15.72C77.7411 17.5 78.1911 18.88 79.0911 19.86C80.0111 20.82 81.1611 21.3 82.5411 21.3ZM97.292 21.78H104.612V24H94.562V3.09H97.292V21.78ZM106.491 15.72C106.491 14.04 106.831 12.57 107.511 11.31C108.191 10.03 109.121 9.04 110.301 8.34C111.501 7.64 112.831 7.29 114.291 7.29C115.731 7.29 116.981 7.6 118.041 8.22C119.101 8.84 119.891 9.62 120.411 10.56V7.56H123.171V24H120.411V20.94C119.871 21.9 119.061 22.7 117.981 23.34C116.921 23.96 115.681 24.27 114.261 24.27C112.801 24.27 111.481 23.91 110.301 23.19C109.121 22.47 108.191 21.46 107.511 20.16C106.831 18.86 106.491 17.38 106.491 15.72ZM120.411 15.75C120.411 14.51 120.161 13.43 119.661 12.51C119.161 11.59 118.481 10.89 117.621 10.41C116.781 9.91 115.851 9.66 114.831 9.66C113.811 9.66 112.881 9.9 112.041 10.38C111.201 10.86 110.531 11.56 110.031 12.48C109.531 13.4 109.281 14.48 109.281 15.72C109.281 16.98 109.531 18.08 110.031 19.02C110.531 19.94 111.201 20.65 112.041 21.15C112.881 21.63 113.811 21.87 114.831 21.87C115.851 21.87 116.781 21.63 117.621 21.15C118.481 20.65 119.161 19.94 119.661 19.02C120.161 18.08 120.411 16.99 120.411 15.75ZM130.515 10.62C131.075 9.64 131.895 8.84 132.975 8.22C134.055 7.6 135.285 7.29 136.665 7.29C138.145 7.29 139.475 7.64 140.655 8.34C141.835 9.04 142.765 10.03 143.445 11.31C144.125 12.57 144.465 14.04 144.465 15.72C144.465 17.38 144.125 18.86 143.445 20.16C142.765 21.46 141.825 22.47 140.625 23.19C139.445 23.91 138.125 24.27 136.665 24.27C135.245 24.27 133.995 23.96 132.915 23.34C131.855 22.72 131.055 21.93 130.515 20.97V24H127.785V1.8H130.515V10.62ZM141.675 15.72C141.675 14.48 141.425 13.4 140.925 12.48C140.425 11.56 139.745 10.86 138.885 10.38C138.045 9.9 137.115 9.66 136.095 9.66C135.095 9.66 134.165 9.91 133.305 10.41C132.465 10.89 131.785 11.6 131.265 12.54C130.765 13.46 130.515 14.53 130.515 15.75C130.515 16.99 130.765 18.08 131.265 19.02C131.785 19.94 132.465 20.65 133.305 21.15C134.165 21.63 135.095 21.87 136.095 21.87C137.115 21.87 138.045 21.63 138.885 21.15C139.745 20.65 140.425 19.94 140.925 19.02C141.425 18.08 141.675 16.98 141.675 15.72Z" fill="white"/>
</svg>
