<svg width="65" height="46" viewBox="0 0 65 46" fill="none" xmlns="http://www.w3.org/2000/svg">
<mask id="mask0_178_183" style="mask-type:luminance" maskUnits="userSpaceOnUse" x="2" y="0" width="63" height="46">
<path d="M64.0357 0H2.22321V46H64.0357V0Z" fill="white"/>
</mask>
<g mask="url(#mask0_178_183)">
<mask id="mask1_178_183" style="mask-type:luminance" maskUnits="userSpaceOnUse" x="2" y="0" width="62" height="46">
<path d="M63.624 0H2.29059V46H63.624V0Z" fill="white"/>
</mask>
<g mask="url(#mask1_178_183)">
<path fill-rule="evenodd" clip-rule="evenodd" d="M59.5031 3.58403H6.38267C5.29905 3.58403 4.25966 4.01383 3.49251 4.77918C2.72538 5.54452 2.29313 6.5829 2.29059 7.66653V38.3333C2.29059 39.4184 2.72171 40.4593 3.48913 41.2267C4.25655 41.9941 5.29739 42.4253 6.38267 42.4253H59.5031C60.0429 42.4291 60.5781 42.3261 61.0779 42.1221C61.5777 41.9182 62.0321 41.6174 62.4152 41.2371C62.7983 40.8567 63.1022 40.4041 63.3096 39.9058C63.5172 39.4076 63.6238 38.873 63.6238 38.3333V7.66653C63.6214 7.12789 63.5128 6.59501 63.3043 6.09832C63.0958 5.60166 62.7917 5.1509 62.4091 4.7718C62.0263 4.39271 61.5729 4.09271 61.0741 3.88889C60.5757 3.6851 60.0418 3.5815 59.5031 3.58403Z" fill="#227FBB"/>
<path fill-rule="evenodd" clip-rule="evenodd" d="M7.82017 17.5368L6.64142 14.6618L5.46267 17.5368H7.82017ZM33.8198 16.3964C33.5538 16.5212 33.2589 16.571 32.9668 16.5402H30.8681V14.9398H32.9573C33.2357 14.9151 33.516 14.9612 33.7718 15.0739C33.8896 15.1298 33.9875 15.2204 34.0524 15.3334C34.1176 15.4464 34.1467 15.5765 34.136 15.7064C34.1446 15.8427 34.1162 15.9788 34.0537 16.1003C33.9915 16.2218 33.8972 16.3241 33.7813 16.3964H33.8198ZM48.7601 17.5368L47.5718 14.6618L46.3738 17.5368H48.7601ZM20.911 20.6515H19.1381V14.9973L16.6656 20.6515H15.1227L12.6118 14.9973V20.6515H9.10433L8.44308 19.0415H4.84933L4.20727 20.6515H2.29059L5.39558 13.416H7.96392L10.9156 20.268V13.416H13.7235L15.9852 18.313L18.036 13.416H20.911V20.6323V20.6515ZM27.9548 20.6515H22.2048V13.416H27.9548V14.9205H23.9201V16.291H27.8588V17.7668H23.9201V19.166H27.9548V20.661V20.6515ZM36.0718 15.3805C36.081 15.7833 35.9716 16.1799 35.7567 16.5208C35.542 16.8616 35.2317 17.1317 34.8643 17.2973C35.1968 17.42 35.4911 17.6281 35.7173 17.901C35.9532 18.2991 36.051 18.7642 35.9951 19.2235V20.6418H34.2606V19.741C34.3337 19.2546 34.239 18.7576 33.9923 18.3323C33.6292 18.0712 33.1792 17.9613 32.7368 18.0255H30.8681V20.6515H29.1238V13.416H33.0818C33.7963 13.3475 34.5164 13.4664 35.171 13.761C35.4543 13.9162 35.6872 14.1495 35.8418 14.4332C35.9964 14.717 36.0662 15.0391 36.0431 15.3614L36.0718 15.3805ZM38.8318 20.6515H37.0781V13.416H38.8318V20.6323V20.6515ZM59.2443 20.6515H56.8006L53.5326 15.2368V20.6515H50.0251L49.3543 19.0415H45.7701L45.1185 20.6515H43.0963C42.1956 20.7087 41.306 20.4248 40.6048 19.856C40.2622 19.4877 40 19.052 39.8349 18.5769C39.67 18.1018 39.6058 17.5972 39.6463 17.096C39.6104 16.5862 39.6764 16.0743 39.841 15.5904C40.0056 15.1065 40.2652 14.6605 40.6048 14.2785C40.9621 13.9658 41.3787 13.7283 41.8299 13.5801C42.281 13.4319 42.7574 13.3761 43.2306 13.416H44.8981V14.9589H43.2593C43.0208 14.9307 42.7789 14.9546 42.5507 15.0291C42.3222 15.1035 42.1128 15.2267 41.9368 15.3902C41.5736 15.8559 41.3961 16.4399 41.4385 17.029C41.386 17.6308 41.5563 18.2311 41.9176 18.7155C42.0829 18.8535 42.2738 18.9575 42.4794 19.0216C42.685 19.0858 42.9012 19.1088 43.1156 19.0893H43.8918L46.3163 13.416H48.9038L51.7788 20.2393V13.416H54.4048L57.4331 18.4473V13.416H59.1963V20.6323L59.2443 20.6515ZM2.29059 22.041H5.23267L5.90352 20.4405H7.38892L8.04058 22.041H13.8385V20.843L14.3656 22.041H17.3748L17.8923 20.7952V22.041H32.2673V19.4343H32.5451C32.7368 19.4343 32.7943 19.4343 32.7943 19.789V22.041H40.2406V21.4277C41.1001 21.8544 42.0508 22.065 43.0101 22.041H46.1438L46.8148 20.4405H48.2906L48.9901 22.041H54.9988V20.546L55.9573 22.041H60.7488V12.0072H55.9573V13.1956L55.2863 12.0072H50.4085V13.1956L49.7856 12.0072H43.1538C42.162 11.9619 41.1744 12.1628 40.2788 12.5918V12.0072H35.6885V12.5918C35.1403 12.1734 34.4602 11.9659 33.7718 12.0072H17.001L15.8798 14.6043L14.7489 12.0072H9.45892V13.1956L8.87433 12.0072H4.37977L2.29059 16.7893V22.041ZM63.6238 27.3502H60.4806C60.2392 27.3253 59.9961 27.3719 59.781 27.4843C59.6963 27.5398 59.6284 27.6172 59.5844 27.7084C59.5405 27.7996 59.5223 27.9011 59.5318 28.0018C59.5279 28.1196 59.5622 28.2356 59.6296 28.3323C59.6969 28.4289 59.7937 28.5014 59.9056 28.5385C60.1223 28.6069 60.3495 28.6361 60.5763 28.6248H61.5348C62.2245 28.5717 62.9087 28.7803 63.4513 29.2093C63.5157 29.2604 63.5708 29.3218 63.6143 29.3915L63.6238 27.3502ZM63.6238 32.1418C63.3429 32.4814 62.9825 32.7464 62.5747 32.9134C62.1668 33.0807 61.724 33.1448 61.2856 33.1002H57.9506V31.519H61.2663C61.5144 31.5518 61.7654 31.4866 61.966 31.3368C62.0321 31.2776 62.085 31.2054 62.1214 31.1245C62.1576 31.0435 62.1766 30.9558 62.1768 30.8673C62.1791 30.7767 62.1615 30.6869 62.1251 30.6041C62.0886 30.5211 62.0342 30.4473 61.966 30.388C61.786 30.2656 61.5696 30.2081 61.3526 30.2252C59.7331 30.1773 57.711 30.2827 57.711 27.9923C57.711 26.9477 58.3818 25.8455 60.1931 25.8455H63.6238V24.408H60.4326C59.6687 24.3683 58.9121 24.5768 58.2763 25.0023V24.408H53.5518C52.8179 24.3703 52.0925 24.5794 51.4913 25.0023V24.408H43.0676V25.0023C42.3607 24.5942 41.555 24.3887 40.7388 24.408H35.1806V25.0023C34.4561 24.5432 33.601 24.3344 32.7463 24.408H26.5268L25.1085 25.951L23.7668 24.408H14.471V34.4993H23.5943L25.0606 32.9373L26.4406 34.4993H32.066V32.113H32.6218C33.4365 32.1664 34.2533 32.0455 35.0176 31.7585V34.4993H39.6656V31.8543H39.8956C40.1735 31.8543 40.2023 31.8543 40.2023 32.1515V34.4993H54.2898C55.1196 34.5308 55.9392 34.3067 56.6376 33.8573V34.4993H61.1035C61.968 34.5197 62.8271 34.3562 63.6238 34.0202V32.1035V32.1418ZM56.7431 29.2668C56.93 29.4712 57.0725 29.7122 57.1617 29.9745C57.2507 30.2367 57.2844 30.5147 57.2606 30.7905C57.2606 32.343 56.3023 33.0715 54.5485 33.0715H51.1656V31.519H54.5101C54.7608 31.5458 55.0126 31.481 55.2193 31.3368C55.2824 31.2758 55.3327 31.2029 55.3672 31.1224C55.4017 31.0417 55.4199 30.955 55.4206 30.8673C55.4211 30.7771 55.4025 30.6877 55.3662 30.6052C55.3299 30.5226 55.2766 30.4487 55.2098 30.388C55.0297 30.2656 54.8134 30.2081 54.5963 30.2252C52.9768 30.1773 50.9643 30.2827 50.9643 27.9923C50.9643 26.9477 51.616 25.8455 53.4273 25.8455H56.9156V27.379H53.7531C53.5148 27.3525 53.274 27.3992 53.0631 27.513C52.9758 27.5664 52.9053 27.6433 52.8595 27.7347C52.8138 27.8263 52.7948 27.9287 52.8043 28.0305C52.7987 28.1487 52.8324 28.2655 52.8999 28.3624C52.9676 28.4595 53.0654 28.5314 53.1781 28.5673C53.3948 28.6356 53.622 28.6647 53.8488 28.6535H54.8073C55.4963 28.606 56.1786 28.8142 56.7238 29.238L56.7431 29.2668ZM41.1893 28.8165C40.9248 28.9454 40.6294 28.9985 40.3363 28.9698H38.2376V27.3405H40.3651C40.646 27.3134 40.9292 27.3561 41.1893 27.4652C41.3028 27.5305 41.3961 27.6259 41.4586 27.7409C41.5212 27.8559 41.5507 27.9862 41.5438 28.1168C41.5504 28.2528 41.5213 28.3882 41.4591 28.5093C41.3968 28.6303 41.3038 28.733 41.1893 28.8068V28.8165ZM42.2243 29.7173C42.559 29.8355 42.8543 30.0447 43.0773 30.321C43.3089 30.7137 43.4065 31.1712 43.3551 31.6243V33.0618H41.6301V32.161C41.7002 31.6705 41.6023 31.1705 41.3523 30.7427C40.9877 30.4768 40.534 30.3634 40.0873 30.4265H38.2376V33.0618H36.5031V25.8743H40.4898C41.1979 25.8122 41.9102 25.931 42.5598 26.2193C42.8511 26.363 43.0945 26.5878 43.2611 26.8666C43.4277 27.1455 43.5103 27.4665 43.4988 27.791C43.5117 28.197 43.4014 28.5972 43.1824 28.9394C42.9636 29.2814 42.6464 29.5492 42.2723 29.7077L42.2243 29.7173ZM44.4573 25.8743H50.2073V27.3693H46.1248V28.6535H50.0635V30.1198H46.1248V31.5573H50.2073V33.0618H44.4573V25.8743ZM32.7751 29.1805H30.5423V27.3405H32.7943C33.4173 27.3405 33.8485 27.5898 33.8485 28.2223C33.8485 28.8548 33.4363 29.1805 32.7751 29.1805ZM28.8268 32.4102L26.1818 29.468L28.8268 26.593V32.343V32.4102ZM21.9938 31.5573H17.7485V30.1198H21.5338V28.6535H17.7485V27.3405H22.0706L23.9873 29.4393L22.0226 31.5573H21.9938ZM35.6981 28.2223C35.6981 30.2252 34.2031 30.6468 32.6985 30.6468H30.5423V33.0618H27.2073L25.0701 30.666L22.866 33.0523H16.0331V25.8743H22.9713L25.0893 28.2415L27.2838 25.8743H32.7943C34.1648 25.8743 35.6693 26.2577 35.6693 28.251L35.6981 28.2223Z" fill="white"/>
</g>
</g>
</svg>
