<svg width="119" height="40" viewBox="0 0 119 40" fill="none" xmlns="http://www.w3.org/2000/svg">
<g clip-path="url(#clip0_178_165)">
<mask id="mask0_178_165" style="mask-type:luminance" maskUnits="userSpaceOnUse" x="0" y="0" width="119" height="40">
<path d="M118.286 0H0V39.4286H118.286V0Z" fill="white"/>
</mask>
<g mask="url(#mask0_178_165)">
<path d="M33.9572 0.679134L25.1285 27.8261L23.458 20.1904C20.9234 13.5822 16.4432 7.89876 10.6096 3.89124L19.0713 38.7657H29.2581L43.5199 0.734196H33.9572V0.679134ZM110.002 0.679134H99.8146L84.1946 38.6922H93.7025L95.7398 33.1857H107.964L109.322 38.6922H117.472L110.002 0.679134ZM97.7773 26.4679L103.284 12.2244L106 26.4679H97.7773ZM70.612 11.5269C70.612 9.50787 71.9703 7.4521 76.7241 7.4521C79.2018 7.68668 81.5595 8.62976 83.5155 10.1686L85.5528 2.03739C82.7466 0.86309 79.7612 0.174153 76.7241 0C66.537 0 61.7833 5.5065 61.7833 11.5453C61.7833 23.7513 75.3657 21.7322 75.3657 27.8261C75.3657 29.1844 74.6867 31.2218 69.2537 31.2218C65.9763 31.2179 62.7368 30.5238 59.7458 29.1844L58.3875 37.3339C61.5611 38.849 65.0622 39.5492 68.5745 39.3714C74.6867 40.0506 84.1946 34.6175 84.1946 26.5229C84.1946 16.9599 70.612 16.2992 70.612 11.5269Z" fill="#1565C0"/>
<path d="M42.1063 39.3711H51.6141L57.7264 1.35791H47.5394L42.1063 39.3711Z" fill="#1565C0"/>
<path d="M23.8613 21.7137L20.3741 4.75378C19.8914 3.70936 19.1115 2.83032 18.1322 2.22641C17.1531 1.62249 16.0175 1.3205 14.8675 1.35811H0C0 1.35811 19.6949 7.47031 23.8613 21.7137Z" fill="#FF9800"/>
</g>
</g>
<defs>
<clipPath id="clip0_178_165">
<rect width="118.286" height="39.4286" fill="white"/>
</clipPath>
</defs>
</svg>
