<svg width="98" height="40" viewBox="0 0 98 40" fill="none" xmlns="http://www.w3.org/2000/svg">
<g clip-path="url(#clip0_178_194)">
<mask id="mask0_178_194" style="mask-type:luminance" maskUnits="userSpaceOnUse" x="1" y="0" width="96" height="40">
<path d="M96.7195 0.571289H1.84445V39.9999H96.7195V0.571289Z" fill="white"/>
</mask>
<g mask="url(#mask0_178_194)">
<path d="M14.5343 7.88133C16.3086 8.03116 18.0828 6.98236 19.1947 5.64573V5.64179C20.2869 4.27757 21.0084 2.43232 20.831 0.571289C19.2499 0.646203 17.314 1.62009 16.2061 2.98826C15.1809 4.15533 14.3096 6.07944 14.5343 7.88133ZM10.142 32.2954C12.1056 32.2204 12.8783 31.0062 15.244 31.0062C17.6255 31.0062 18.3194 32.2954 20.3894 32.2678C22.5343 32.2244 23.8788 30.3201 25.1918 28.3645C26.6822 26.1447 27.3052 23.9958 27.3367 23.8775C27.2934 23.8341 23.1967 22.2412 23.1494 17.4388C23.106 13.4171 26.3904 11.5088 26.5324 11.3905C24.6832 8.59893 21.801 8.29927 20.7955 8.22436L20.8034 8.2283C18.2287 8.07453 16.0286 9.71082 14.8142 9.71082C13.5723 9.71082 11.7113 8.29927 9.66887 8.34264C7.02715 8.38996 4.57077 9.90796 3.22625 12.321C0.446535 17.1668 2.50077 24.327 5.1898 28.2738C6.5067 30.2216 8.07201 32.3703 10.142 32.2954ZM58.0871 17.08H62.1246C62.4636 15.2781 64.1039 14.0913 66.3552 14.0913C69.0916 14.0913 70.6291 15.3807 70.6291 17.7661V19.3866L65.0423 19.7336C59.8535 20.049 57.0422 22.2097 57.0422 25.9593C57.058 29.7405 59.952 32.26 64.1078 32.2638C66.9191 32.2638 69.5214 30.8248 70.7001 28.5301H70.787V32.0432H74.9268V17.4861C74.9268 13.2712 71.5991 10.5388 66.4854 10.5388C61.7382 10.5388 58.2251 13.2949 58.0871 17.08ZM70.6449 24.122C70.6449 26.8544 68.3502 28.8021 65.3222 28.8021C62.9407 28.8021 61.4188 27.6311 61.4188 25.8608C61.4188 24.0116 62.8816 22.9509 65.6771 22.7853L70.6449 22.4699V24.122ZM35.6443 2.79112V32.0392H40.1234V22.0441H46.3176C51.9796 22.0441 55.9422 18.0973 55.9422 12.3959C55.9422 6.69453 52.0427 2.79112 46.4635 2.79112H35.6443ZM51.3921 12.4117C51.3921 16.1022 49.1762 18.2353 45.2688 18.2353H40.1234V6.61962H45.2846C49.1723 6.61962 51.3921 8.71722 51.3921 12.4117Z" fill="black"/>
<path d="M86.6316 28.0929L81.3678 10.8232H76.6956L84.2658 32.1186L83.8518 33.4079C83.1697 35.5962 82.0618 36.4557 80.0825 36.4557C79.7276 36.4557 79.0494 36.4123 78.7656 36.3808V39.8939C79.0337 39.957 80.1456 40.0003 80.4846 40.0003L80.4807 39.9924C84.8415 39.9924 86.8957 38.297 88.6897 33.1792L96.54 10.8232H91.986L86.7222 28.0929H86.6316Z" fill="black"/>
</g>
</g>
<defs>
<clipPath id="clip0_178_194">
<rect width="96.9286" height="39.4286" fill="white" transform="translate(0.5 0.571289)"/>
</clipPath>
</defs>
</svg>
