<svg width="78" height="46" viewBox="0 0 78 46" fill="none" xmlns="http://www.w3.org/2000/svg">
<mask id="mask0_178_201" style="mask-type:luminance" maskUnits="userSpaceOnUse" x="1" y="0" width="77" height="46">
<path d="M77.5804 0H1.39287V46H77.5804V0Z" fill="white"/>
</mask>
<g mask="url(#mask0_178_201)">
<mask id="mask1_178_201" style="mask-type:luminance" maskUnits="userSpaceOnUse" x="2" y="0" width="75" height="46">
<path d="M72.4236 0H6.20736C4.11546 0 2.41965 1.69581 2.41965 3.78769V42.2122C2.41965 44.3042 4.11546 46 6.20736 46H72.4236C74.5155 46 76.2112 44.3042 76.2112 42.2122V3.78769C76.2112 1.69581 74.5155 0 72.4236 0Z" fill="white"/>
</mask>
<g mask="url(#mask1_178_201)">
<path d="M72.4236 0H6.20736C4.11546 0 2.41965 1.69581 2.41965 3.78769V42.2122C2.41965 44.3042 4.11546 46 6.20736 46H72.4236C74.5155 46 76.2112 44.3042 76.2112 42.2122V3.78769C76.2112 1.69581 74.5155 0 72.4236 0Z" fill="white"/>
<path d="M75.3321 26.0698C75.3321 26.0698 56.0529 39.8378 20.7429 46H75.3321V26.0698Z" fill="#F58025"/>
<path d="M9.43411 15.3262H6.4899V25.733H9.41862C10.9759 25.733 12.1004 25.3611 13.0875 24.5314C13.6683 24.0443 14.1365 23.4342 14.459 22.7438C14.7815 22.0537 14.9506 21.3003 14.9542 20.5368C14.9542 17.4657 12.687 15.3262 9.43411 15.3262ZM11.7772 23.1439C11.147 23.7199 10.3284 23.9712 9.03238 23.9712H8.49409V17.0896H9.03238C10.3284 17.0896 11.1148 17.3242 11.7772 17.9311C12.1298 18.2613 12.4107 18.6622 12.602 19.108C12.7932 19.5542 12.8907 20.0356 12.8882 20.5217C12.891 21.0126 12.7939 21.4989 12.6027 21.95C12.4116 22.4011 12.1306 22.8076 11.7772 23.1439Z" fill="#231F20"/>
<path d="M17.8829 15.3262H15.877V25.733H17.8829V15.3262Z" fill="#231F20"/>
<path d="M22.7871 19.3204C21.5834 18.8696 21.23 18.5724 21.23 18.0102C21.23 17.3547 21.8597 16.8566 22.7242 16.8566C23.0393 16.8635 23.3488 16.943 23.6293 17.0891C23.9094 17.235 24.1532 17.4438 24.3416 17.6994L25.3911 16.3088C24.5596 15.559 23.4832 15.1478 22.3695 15.1549C20.5502 15.1549 19.1625 16.4336 19.1625 18.1369C19.1625 19.5704 19.8086 20.3046 21.6923 20.9907C22.1719 21.1438 22.6362 21.3421 23.0789 21.5834C23.2631 21.6943 23.4154 21.852 23.521 22.041C23.6263 22.2299 23.6812 22.4433 23.6802 22.6602C23.6786 22.8617 23.6362 23.0609 23.556 23.2454C23.4758 23.4297 23.3592 23.5958 23.2135 23.733C23.0679 23.8705 22.8959 23.9763 22.7085 24.0443C22.5208 24.1121 22.3217 24.1407 22.1229 24.1281C21.6646 24.1355 21.2139 24.0083 20.8254 23.762C20.4369 23.5156 20.1274 23.1607 19.9338 22.7402L18.6381 24.0029C19.5622 25.3756 20.672 25.984 22.1982 25.984C24.2825 25.984 25.7448 24.5817 25.7448 22.5669C25.7448 20.9133 25.0687 20.165 22.7871 19.3204Z" fill="#231F20"/>
<path d="M26.3776 20.5375C26.3718 21.2575 26.5089 21.9715 26.7804 22.6371C27.052 23.3026 27.4525 23.9062 27.9585 24.4125C28.4645 24.9188 29.0656 25.3172 29.7262 25.5845C30.387 25.8516 31.0937 25.9822 31.8053 25.9683C32.6789 25.9694 33.5406 25.7616 34.32 25.3617V22.9722C33.518 23.7844 32.8079 24.112 31.8984 24.112C29.8784 24.112 28.4446 22.6298 28.4446 20.5225C28.4295 20.0635 28.5048 19.606 28.6663 19.1769C28.8278 18.7476 29.0719 18.3551 29.3847 18.0224C29.6975 17.6899 30.0725 17.4234 30.4882 17.2391C30.9037 17.0546 31.3513 16.9557 31.8053 16.9483C32.7619 16.9483 33.4859 17.2937 34.32 18.1192V15.7308C33.5636 15.3109 32.7149 15.0912 31.8524 15.0917C31.1389 15.0827 30.4307 15.2167 29.7686 15.486C29.1064 15.7553 28.5036 16.1546 27.9945 16.6608C27.4857 17.167 27.0807 17.7703 26.8033 18.4356C26.5256 19.101 26.381 19.8153 26.3776 20.5375Z" fill="#231F20"/>
<path d="M50.2229 22.3174L47.4809 15.3271H45.2895L49.6536 26.001H50.733L55.1748 15.3271H53.0011L50.2229 22.3174Z" fill="#231F20"/>
<path d="M56.0821 25.7337H61.7705V23.9722H58.0864V21.1631H61.6346V19.4005H58.0864V17.0903H61.7705V15.3271H56.0821V25.7337Z" fill="#231F20"/>
<path d="M69.7127 18.3985C69.7127 16.4504 68.3868 15.3262 66.0736 15.3262H63.0994V25.733H65.1029V21.5524H65.3644L68.1408 25.733H70.6074L67.3703 21.3487C68.8809 21.0377 69.7127 19.9921 69.7127 18.3985ZM65.6889 20.1174H65.1029V16.9654H65.7206C66.9698 16.9654 67.6488 17.4951 67.6488 18.5079C67.6488 19.5542 66.9698 20.1174 65.6889 20.1174Z" fill="#231F20"/>
<path d="M45.8925 20.5365C45.8925 21.631 45.5716 22.7007 44.9708 23.6106C44.37 24.5205 43.5161 25.2297 42.5172 25.6484C41.518 26.0672 40.4186 26.1768 39.3582 25.9632C38.2977 25.7496 37.3235 25.2226 36.5589 24.4488C35.7943 23.675 35.2733 22.6892 35.0626 21.6157C34.8516 20.5424 34.9599 19.4299 35.3736 18.4189C35.7874 17.4077 36.4882 16.5436 37.3872 15.9356C38.2863 15.3275 39.3434 15.0029 40.4249 15.0029C41.143 15.0028 41.854 15.1458 42.5174 15.4238C43.1808 15.7019 43.7837 16.1095 44.2915 16.6234C44.7991 17.1371 45.2018 17.7473 45.4765 18.4187C45.7512 19.0902 45.8925 19.8097 45.8925 20.5365Z" fill="#F58025"/>
<path d="M70.783 15.533C70.783 15.3507 70.6588 15.251 70.4408 15.251H70.1505V16.1657H70.3664V15.8109L70.6194 16.1657H70.8824L70.5852 15.7885C70.6427 15.7764 70.6942 15.7442 70.7303 15.6975C70.7666 15.6506 70.7853 15.5924 70.783 15.533ZM70.4029 15.6579H70.3664V15.4187H70.4052C70.5115 15.4187 70.5673 15.4577 70.5673 15.5365C70.5673 15.6173 70.5107 15.6579 70.4029 15.6579Z" fill="#231F20"/>
<path d="M70.4839 14.9093C70.3276 14.9071 70.1744 14.9521 70.0433 15.0383C69.9123 15.1247 69.8096 15.2485 69.7484 15.3941C69.6871 15.5396 69.67 15.7003 69.6992 15.8557C69.7285 16.0111 69.8027 16.1543 69.9125 16.2668C70.0224 16.3794 70.1627 16.4564 70.316 16.4881C70.4689 16.5197 70.6279 16.5044 70.7725 16.4444C70.9173 16.3843 71.041 16.2821 71.1279 16.1507C71.2151 16.0193 71.2614 15.8646 71.2613 15.7065C71.2626 15.4965 71.1814 15.2945 71.0357 15.145C70.8898 14.9957 70.6914 14.9107 70.4839 14.9093ZM70.4808 16.3616C70.352 16.3662 70.2246 16.3318 70.115 16.2627C70.0056 16.1937 69.9192 16.093 69.8666 15.9739C69.8141 15.8546 69.798 15.7222 69.8203 15.5937C69.8427 15.465 69.9025 15.3463 69.992 15.2522C70.0817 15.1584 70.197 15.0937 70.323 15.0665C70.4492 15.0395 70.5805 15.0511 70.7001 15.1C70.8197 15.149 70.922 15.233 70.9943 15.3412C71.0663 15.4495 71.1049 15.5771 71.1047 15.7076C71.1072 15.8778 71.0429 16.0423 70.926 16.1648C70.8092 16.2874 70.6491 16.3581 70.4808 16.3616Z" fill="#231F20"/>
</g>
</g>
</svg>
