<svg width="65" height="46" viewBox="0 0 65 46" fill="none" xmlns="http://www.w3.org/2000/svg">
<mask id="mask0_178_173" style="mask-type:luminance" maskUnits="userSpaceOnUse" x="0" y="0" width="62" height="46">
<path d="M61.8805 0H0.547081V46H61.8805V0Z" fill="white"/>
</mask>
<g mask="url(#mask0_178_173)">
<path d="M59.6101 45.367V45.4915H59.7155H59.7731C59.7772 45.4843 59.7795 45.4759 59.7795 45.4677C59.7795 45.4592 59.7772 45.4509 59.7731 45.4436H59.7155L59.6101 45.367ZM59.7155 45.2903C59.7367 45.2814 59.7596 45.2768 59.7826 45.2768C59.8056 45.2768 59.8284 45.2814 59.8498 45.2903C59.8573 45.3067 59.8614 45.3248 59.8614 45.343C59.8614 45.3612 59.8573 45.3792 59.8498 45.3957C59.8559 45.4092 59.859 45.424 59.859 45.439C59.859 45.4537 59.8559 45.4684 59.8498 45.482C59.8158 45.4943 59.7783 45.4943 59.7443 45.482L59.8881 45.6448H59.7731L59.6388 45.482V45.6448H59.5431V45.204L59.7155 45.2903ZM59.7155 45.8845C59.7625 45.898 59.8123 45.898 59.8593 45.8845C59.906 45.8684 59.9485 45.8423 59.9838 45.8078C60.0147 45.7734 60.0407 45.7345 60.0606 45.6928C60.0985 45.5975 60.0985 45.491 60.0606 45.3957C60.0407 45.3539 60.0147 45.3151 59.9838 45.2807C59.9488 45.2435 59.9065 45.2142 59.8593 45.1945H59.7155H59.5718C59.5247 45.2142 59.4823 45.2435 59.4471 45.2807C59.3959 45.3345 59.3612 45.4022 59.3476 45.4754C59.3339 45.5485 59.342 45.6241 59.3706 45.6928C59.388 45.7358 59.4143 45.7749 59.4471 45.8078C59.4823 45.8449 59.5247 45.8743 59.5718 45.894C59.6193 45.9031 59.6681 45.9031 59.7155 45.894V45.8845ZM59.7155 45.0315C59.845 45.0319 59.969 45.0836 60.0606 45.1753C60.1072 45.2175 60.1434 45.2699 60.1659 45.3285C60.1946 45.3867 60.2096 45.4506 60.2096 45.5155C60.2096 45.5804 60.1946 45.6443 60.1659 45.7023C60.1455 45.7621 60.109 45.8152 60.0606 45.8557C60.0175 45.9012 59.9653 45.9372 59.9071 45.9611C59.8465 45.9864 59.7813 45.9995 59.7155 45.9995C59.6497 45.9995 59.5846 45.9864 59.5238 45.9611C59.464 45.9351 59.4092 45.8994 59.3609 45.8557C59.3201 45.8106 59.2879 45.7587 59.2651 45.7023C59.2363 45.6443 59.2214 45.5804 59.2214 45.5155C59.2214 45.4506 59.2363 45.3867 59.2651 45.3285C59.3162 45.2132 59.4085 45.1209 59.5238 45.0698C59.5869 45.0555 59.6525 45.0555 59.7155 45.0698V45.0315ZM14.4535 43.3448C14.463 43.0555 14.558 42.7756 14.7265 42.54C14.895 42.3045 15.1294 42.1242 15.4003 42.0218C15.6711 41.9195 15.9662 41.8994 16.2482 41.9645C16.5304 42.0295 16.787 42.1766 16.9857 42.3873C17.1843 42.598 17.3162 42.8628 17.3645 43.1481C17.413 43.4335 17.3757 43.7269 17.2577 43.9913C17.1394 44.2556 16.9459 44.4792 16.701 44.6336C16.456 44.7881 16.1708 44.8664 15.8814 44.859C15.6801 44.8621 15.4805 44.8235 15.2949 44.7455C15.1093 44.6675 14.942 44.5521 14.8033 44.4063C14.6646 44.2602 14.5577 44.0872 14.4892 43.8979C14.4208 43.7087 14.3923 43.5073 14.4055 43.3065L14.4535 43.3448ZM18.3346 43.3065V40.882H17.2806V41.4761C17.1013 41.2423 16.8682 41.055 16.6014 40.9298C16.3346 40.8048 16.0417 40.7456 15.7473 40.7573C15.0711 40.7573 14.4228 41.0259 13.9447 41.504C13.4666 41.9821 13.198 42.6305 13.198 43.3065C13.198 43.9826 13.4666 44.631 13.9447 45.1091C14.4228 45.5871 15.0711 45.8557 15.7473 45.8557C16.0407 45.8669 16.3325 45.8086 16.5991 45.6852C16.8657 45.562 17.0992 45.3773 17.2806 45.1465V45.7311H18.3346V43.3065ZM53.9846 43.3065C54.0015 43.0208 54.1016 42.7463 54.2726 42.5168C54.4436 42.2873 54.6781 42.1128 54.947 42.0149C55.2159 41.917 55.5077 41.9001 55.7862 41.966C56.0646 42.0318 56.3178 42.1779 56.5143 42.386C56.7108 42.594 56.8422 42.8551 56.8921 43.137C56.9421 43.4187 56.9086 43.7092 56.7954 43.972C56.6823 44.2349 56.4947 44.4591 56.2559 44.6167C56.017 44.7743 55.7372 44.8585 55.4509 44.859C55.2504 44.8607 55.0518 44.8212 54.8673 44.7425C54.6832 44.664 54.5167 44.5484 54.3792 44.4026C54.2416 44.2568 54.1354 44.0842 54.0676 43.8956C53.9997 43.707 53.9715 43.5066 53.9846 43.3065ZM57.9138 43.3065V38.9365H56.8693V41.4761C56.6932 41.2413 56.4622 41.0529 56.1967 40.9277C55.9311 40.8023 55.639 40.7438 55.3456 40.7573C54.6695 40.7573 54.0209 41.0259 53.543 41.504C53.0649 41.9821 52.7963 42.6305 52.7963 43.3065C52.7963 43.9826 53.0649 44.631 53.543 45.1091C54.0209 45.5871 54.6695 45.8557 55.3456 45.8557C55.6378 45.8686 55.9288 45.8109 56.1941 45.6874C56.4594 45.564 56.6911 45.3785 56.8693 45.1465V45.7311H57.9331L57.9138 43.3065ZM31.4446 41.706C31.6028 41.7023 31.7602 41.7299 31.9076 41.787C32.0549 41.8444 32.1895 41.9303 32.3037 42.0399C32.4177 42.1495 32.5089 42.2806 32.5719 42.4256C32.6352 42.5707 32.669 42.7268 32.6713 42.8848H30.1606C30.178 42.5594 30.322 42.2538 30.5621 42.0335C30.8023 41.8132 31.119 41.6957 31.4446 41.706ZM31.4446 40.7478C30.7686 40.7566 30.1238 41.0338 29.6519 41.5181C29.1803 42.0026 28.9202 42.6545 28.9291 43.3305C28.9379 44.0065 29.2151 44.6514 29.6994 45.1232C30.1839 45.595 30.8358 45.8551 31.5118 45.8461C32.2343 45.8725 32.9413 45.63 33.4956 45.1657L32.9781 44.3798C32.5787 44.7023 32.0825 44.8812 31.5693 44.8878C31.2209 44.9173 30.8745 44.8099 30.6041 44.5878C30.3339 44.3658 30.1609 44.0471 30.1221 43.6995H33.7256C33.7256 43.5748 33.7256 43.4407 33.7256 43.297C33.7561 42.9747 33.7193 42.6497 33.6173 42.3425C33.5153 42.0353 33.3503 41.7529 33.133 41.5129C32.9158 41.273 32.6506 41.0811 32.3551 40.9494C32.0595 40.8176 31.7397 40.7491 31.4159 40.7478H31.4446ZM44.1618 43.297C44.1786 43.0113 44.2788 42.7366 44.4496 42.5071C44.6208 42.2776 44.8553 42.1031 45.1242 42.0052C45.3931 41.9075 45.6847 41.8904 45.9634 41.9564C46.2418 42.0223 46.495 42.1683 46.6915 42.3765C46.888 42.5847 47.0194 42.8457 47.0692 43.1274C47.1191 43.4092 47.0854 43.6995 46.9726 43.9623C46.8594 44.2254 46.6719 44.4495 46.4331 44.6072C46.194 44.7647 45.9142 44.849 45.6281 44.8495C45.4276 44.8513 45.229 44.8115 45.0445 44.733C44.8602 44.6545 44.6939 44.5387 44.5563 44.3929C44.4186 44.2474 44.3126 44.0747 44.2448 43.8861C44.1769 43.6975 44.1485 43.4969 44.1618 43.297ZM48.0813 43.297V40.882H47.0273V41.4761C46.849 41.2411 46.6162 41.0529 46.3493 40.9275C46.0821 40.8023 45.7886 40.744 45.4938 40.7573C44.8178 40.7573 44.1694 41.0259 43.6913 41.504C43.2134 41.9821 42.9448 42.6305 42.9448 43.3065C42.9448 43.9826 43.2134 44.631 43.6913 45.1091C44.1694 45.5871 44.8178 45.8557 45.4938 45.8557C45.7876 45.8686 46.08 45.8109 46.3468 45.6874C46.6136 45.5641 46.8469 45.3787 47.0273 45.1465V45.7311H48.0813V43.3065V43.297ZM38.201 43.297C38.1856 43.6404 38.2426 43.9831 38.3681 44.3031C38.4938 44.6231 38.6852 44.9131 38.93 45.1544C39.1749 45.3956 39.4678 45.5827 39.7895 45.7035C40.1113 45.8242 40.4549 45.8761 40.7981 45.8557C41.4324 45.8874 42.0553 45.6788 42.5423 45.271L42.0343 44.4182C41.6688 44.7002 41.2213 44.8549 40.7596 44.859C40.3479 44.859 39.9531 44.6954 39.662 44.4043C39.3707 44.1132 39.2073 43.7184 39.2073 43.3065C39.2073 42.8948 39.3707 42.4999 39.662 42.2086C39.9531 41.9177 40.3479 41.754 40.7596 41.754C41.2194 41.7594 41.6656 41.9104 42.0343 42.1853L42.5423 41.3323C42.0519 40.9314 41.4306 40.7266 40.7981 40.7573C40.4565 40.7384 40.1148 40.791 39.7948 40.9119C39.4749 41.0328 39.1836 41.2193 38.94 41.4593C38.6963 41.6992 38.5056 41.9876 38.3799 42.3057C38.2544 42.6237 38.1968 42.9648 38.2106 43.3065L38.201 43.297ZM51.8093 40.7573C51.5527 40.7501 51.2989 40.8122 51.0746 40.9369C50.8504 41.0617 50.6639 41.2447 50.5348 41.4665V40.882H49.5284V45.7311H50.5826V43.0095C50.5826 42.214 50.9276 41.7635 51.6176 41.7635C51.844 41.7624 52.0684 41.8046 52.2788 41.8882L52.5951 40.9298C52.356 40.8406 52.1027 40.7952 51.8476 40.7957L51.8093 40.7573ZM23.5481 41.2653C22.9688 40.9209 22.3051 40.7451 21.6313 40.7573C20.4046 40.7573 19.6093 41.3515 19.6093 42.3098C19.6093 43.1053 20.1938 43.594 21.2863 43.7473L21.7846 43.8145C22.3598 43.8911 22.6376 44.0445 22.6376 44.3223C22.6376 44.6003 22.2446 44.907 21.5259 44.907C20.9471 44.9254 20.3793 44.7463 19.9159 44.399L19.4176 45.2232C20.0305 45.6553 20.7669 45.8771 21.5163 45.8557C22.9156 45.8557 23.7301 45.1945 23.7301 44.2745C23.7301 43.3545 23.0881 42.9711 22.0338 42.8178L21.5356 42.7507C21.0851 42.6932 20.7209 42.5973 20.7209 42.2715C20.7209 41.9457 21.0659 41.706 21.6793 41.706C22.2108 41.7133 22.7317 41.8551 23.1934 42.1182L23.6438 41.2653H23.5481ZM37.1659 40.7573C36.9081 40.7504 36.6531 40.8125 36.4272 40.9372C36.2017 41.0619 36.0132 41.2446 35.8818 41.4665V40.882H34.8563V45.7311H35.9106V43.0095C35.9106 42.214 36.2556 41.7635 36.9456 41.7635C37.1721 41.7612 37.3967 41.8038 37.6068 41.8882L37.9326 40.9298C37.6934 40.8406 37.4404 40.7952 37.1851 40.7957L37.1659 40.7573ZM28.1768 40.9203H26.4231V39.4061H25.3881V40.882H24.4296V41.8403H25.3881V44.0828C25.3881 45.2136 25.8288 45.8845 27.0746 45.8845C27.5417 45.8851 27.9997 45.7559 28.3971 45.5107L28.0906 44.5523C27.8001 44.7256 27.4702 44.8212 27.1321 44.8303C26.6051 44.8303 26.4326 44.5045 26.4326 44.0157V41.8498H28.1576L28.1768 40.9203ZM12.4026 45.7311V42.6932C12.418 42.4375 12.3789 42.1813 12.2881 41.9418C12.1972 41.7024 12.0565 41.4849 11.8754 41.3037C11.6942 41.1227 11.4767 40.9819 11.2372 40.891C10.9977 40.8002 10.7417 40.7611 10.486 40.7765C10.151 40.7585 9.81719 40.8286 9.51784 40.9799C9.21851 41.1312 8.96412 41.3586 8.78012 41.639C8.61529 41.3648 8.37974 41.1402 8.09813 40.9884C7.81655 40.8366 7.49933 40.7634 7.17971 40.7765C6.90116 40.7624 6.62375 40.8212 6.37497 40.9472C6.12618 41.0734 5.91466 41.2622 5.76137 41.4953V40.9011H4.71679V45.7503H5.78054V43.0382C5.75754 42.8723 5.77164 42.7036 5.82181 42.5439C5.87196 42.3842 5.95697 42.2375 6.07067 42.1148C6.18434 41.9919 6.3239 41.8958 6.47921 41.8335C6.63455 41.7711 6.80179 41.744 6.96887 41.754C7.66846 41.754 8.02304 42.214 8.02304 43.0286V45.7311H9.08679V43.0382C9.06555 42.8726 9.08089 42.7046 9.13171 42.5455C9.18252 42.3868 9.26759 42.2408 9.38091 42.1184C9.49422 41.9959 9.63302 41.8999 9.78755 41.837C9.94204 41.7739 10.1085 41.7456 10.2751 41.754C10.9939 41.754 11.3389 42.2045 11.3389 43.0286V45.7311H12.4026Z" fill="#231F20"/>
<path d="M60.2045 29.5932V28.8838H60.0224L59.8115 29.3725L59.6007 28.8838H59.409V29.5932H59.5432V29.066L59.7445 29.526H59.8787L60.0799 29.0563V29.5932H60.2045ZM59.0352 29.5932V29.0085H59.2749V28.8838H58.6712V29.0085H58.9012V29.5932H59.0352Z" fill="#F79410"/>
<path d="M39.2064 32.64H23.2215V3.89014H39.2064V32.64Z" fill="#FF5F00"/>
<path d="M24.2377 18.2751C24.2326 15.5078 24.8582 12.7759 26.0672 10.2867C27.276 7.79756 29.0363 5.61663 31.2144 3.9097C28.5179 1.79281 25.2803 0.477061 21.8715 0.112764C18.4628 -0.251532 15.0202 0.350318 11.9372 1.84956C8.85421 3.3488 6.25506 5.68497 4.4367 8.59119C2.61835 11.4974 1.65409 14.8565 1.65409 18.2847C1.65409 21.713 2.61835 25.072 4.4367 27.9782C6.25506 30.8845 8.85421 33.2205 11.9372 34.72C15.0202 36.2191 18.4628 36.821 21.8715 36.4566C25.2803 36.0924 28.5179 34.7766 31.2144 32.6597C29.035 30.9517 27.2741 28.7694 26.0651 26.2783C24.8561 23.7874 24.2313 21.0535 24.2377 18.2847" fill="#EB001B"/>
<path d="M60.7788 18.275C60.7813 21.7048 59.8182 25.0659 57.9996 27.9736C56.1813 30.8816 53.5806 33.2187 50.4958 34.7175C47.411 36.2164 43.9666 36.8166 40.5566 36.4492C37.1466 36.0819 33.9091 34.762 31.2143 32.6404C33.3924 30.9306 35.1535 28.748 36.3645 26.2578C37.5754 23.7675 38.2046 21.0345 38.2046 18.2654C38.2046 15.4963 37.5754 12.7634 36.3645 10.2732C35.1535 7.78288 33.3924 5.60036 31.2143 3.89046C33.9097 1.76844 37.1481 0.448365 40.559 0.0813875C43.9698 -0.285591 47.415 0.315361 50.5003 1.81543C53.5854 3.31549 56.1857 5.65405 58.0035 8.56332C59.8213 11.4726 60.7831 14.8349 60.7788 18.2654" fill="#F79E1B"/>
</g>
</svg>
