<svg width="18" height="18" viewBox="0 0 18 18" fill="none" xmlns="http://www.w3.org/2000/svg">
<g clip-path="url(#clip0_177_68)">
<path d="M9 18C13.9625 18 18 13.9625 18 9C18 4.03752 13.9625 0 9 0C4.03752 0 0 4.03752 0 9C0 13.9625 4.03752 18 9 18ZM9 0.899266C13.467 0.899266 17.1007 4.53303 17.1007 9C17.1007 13.467 13.467 17.1007 9 17.1007C4.53303 17.1007 0.899266 13.467 0.899266 9C0.899266 4.53303 4.53303 0.899266 9 0.899266Z" fill="#A93CEF"/>
<path d="M7.57954 12.832C7.66396 12.9164 7.77775 12.9641 7.89887 12.9641C8.01633 12.9641 8.13011 12.9164 8.21453 12.832L13.6285 7.44737C13.7129 7.36295 13.7606 7.24917 13.7606 7.12804C13.7606 7.01059 13.7129 6.89313 13.6285 6.80871L11.9914 5.16434C11.8153 4.98815 11.5326 4.98816 11.3565 5.16067L7.90621 8.59256L6.65091 7.32992C6.56649 7.2455 6.45271 7.19778 6.33158 7.19778C6.21412 7.19778 6.10034 7.2455 6.01592 7.32992L4.37155 8.96695C4.28713 9.05137 4.23941 9.16515 4.23941 9.28628C4.23941 9.40373 4.28713 9.52119 4.37155 9.60561L7.57954 12.832ZM6.33158 8.28424L7.59055 9.55055C7.76674 9.72674 8.04936 9.72674 8.22554 9.55422L11.6758 6.12233L12.6778 7.12804L7.90254 11.8776L5.32587 9.28628L6.33158 8.28424Z" fill="#A93CEF"/>
</g>
<defs>
<clipPath id="clip0_177_68">
<rect width="18" height="18" fill="white"/>
</clipPath>
</defs>
</svg>
