<svg width="80" height="80" viewBox="0 0 80 80" fill="none" xmlns="http://www.w3.org/2000/svg">
<rect width="80" height="80" fill="#858585"/>
<g clip-path="url(#clip0_126_5)">
<path d="M39.5 64C26.5207 64 16 53.4793 16 40.5C16 27.5207 26.5207 17 39.5 17C52.4793 17 63 27.5207 63 40.5C63 53.4793 52.4793 64 39.5 64ZM46.8467 31.4745L48.0364 26.7143L44.2235 25.7655L43.2791 29.5475C42.6575 29.3382 42.0199 29.1796 41.3727 29.0731L42.3185 25.2911L38.5057 24.3437L37.316 29.104C32.9347 29.9 29.2246 33.1239 28.0922 37.6565C26.9598 42.1891 28.7179 46.7716 32.2106 49.524L31.0209 54.2857L34.8338 55.2345L35.7782 51.4525C36.3998 51.6618 37.0374 51.8204 37.6846 51.9269L36.7387 55.7089L40.5516 56.6562L41.7413 51.896C43.282 51.6197 44.7517 51.0374 46.0635 50.1835C47.3753 49.3296 48.5026 48.2213 49.3788 46.9243L45.1973 45.8844C44.2316 46.8601 43.0282 47.5671 41.7058 47.9354C40.3833 48.3037 38.9877 48.3207 37.6567 47.9847C33.4473 46.939 30.8711 42.7384 31.9036 38.6038C32.9362 34.4693 37.1897 31.9666 41.4006 33.0138C42.733 33.3394 43.9572 34.0078 44.9517 34.9526C45.9462 35.8973 46.6764 37.0856 47.0699 38.3997L51.25 39.4396C51.0869 37.8847 50.6131 36.3784 49.8566 35.0102C49.1002 33.642 48.0767 32.4396 46.8467 31.4745Z" fill="#AFAFAF"/>
</g>
<defs>
<clipPath id="clip0_126_5">
<rect width="47" height="47" fill="white" transform="translate(16 17)"/>
</clipPath>
</defs>
</svg>
