<svg width="318" height="219" viewBox="0 0 318 219" fill="none" xmlns="http://www.w3.org/2000/svg">
<path d="M38.69 7.86V17.45H25.67V57H13.7V17.45H0.679993V7.86H38.69Z" fill="white"/>
<path d="M62.4774 57.56C58.6508 57.56 55.1974 56.7433 52.1174 55.11C49.0841 53.4767 46.6807 51.1433 44.9074 48.11C43.1807 45.0767 42.3174 41.53 42.3174 37.47C42.3174 33.4567 43.2041 29.9333 44.9774 26.9C46.7507 23.82 49.1774 21.4633 52.2574 19.83C55.3374 18.1967 58.7907 17.38 62.6174 17.38C66.4441 17.38 69.8974 18.1967 72.9774 19.83C76.0574 21.4633 78.4841 23.82 80.2574 26.9C82.0307 29.9333 82.9174 33.4567 82.9174 37.47C82.9174 41.4833 82.0074 45.03 80.1874 48.11C78.4141 51.1433 75.9641 53.4767 72.8374 55.11C69.7574 56.7433 66.3041 57.56 62.4774 57.56ZM62.4774 47.2C64.7641 47.2 66.7007 46.36 68.2874 44.68C69.9207 43 70.7374 40.5967 70.7374 37.47C70.7374 34.3433 69.9441 31.94 68.3574 30.26C66.8174 28.58 64.9041 27.74 62.6174 27.74C60.2841 27.74 58.3474 28.58 56.8074 30.26C55.2674 31.8933 54.4974 34.2967 54.4974 37.47C54.4974 40.5967 55.2441 43 56.7374 44.68C58.2774 46.36 60.1908 47.2 62.4774 47.2Z" fill="white"/>
<path d="M113.138 57L101.238 40.62V57H89.2677V5.2H101.238V33.83L113.068 17.94H127.838L111.598 37.54L127.978 57H113.138Z" fill="white"/>
<path d="M169.359 36.84C169.359 37.96 169.289 39.1267 169.149 40.34H142.059C142.246 42.7667 143.016 44.6333 144.369 45.94C145.769 47.2 147.473 47.83 149.479 47.83C152.466 47.83 154.543 46.57 155.709 44.05H168.449C167.796 46.6167 166.606 48.9267 164.879 50.98C163.199 53.0333 161.076 54.6433 158.509 55.81C155.943 56.9767 153.073 57.56 149.899 57.56C146.073 57.56 142.666 56.7433 139.679 55.11C136.693 53.4767 134.359 51.1433 132.679 48.11C130.999 45.0767 130.159 41.53 130.159 37.47C130.159 33.41 130.976 29.8633 132.609 26.83C134.289 23.7967 136.623 21.4633 139.609 19.83C142.596 18.1967 146.026 17.38 149.899 17.38C153.679 17.38 157.039 18.1733 159.979 19.76C162.919 21.3467 165.206 23.61 166.839 26.55C168.519 29.49 169.359 32.92 169.359 36.84ZM157.109 33.69C157.109 31.6367 156.409 30.0033 155.009 28.79C153.609 27.5767 151.859 26.97 149.759 26.97C147.753 26.97 146.049 27.5533 144.649 28.72C143.296 29.8867 142.456 31.5433 142.129 33.69H157.109Z" fill="white"/>
<path d="M199.474 17.52C204.047 17.52 207.687 19.0133 210.394 22C213.147 24.94 214.524 29 214.524 34.18V57H202.624V35.79C202.624 33.1767 201.947 31.1467 200.594 29.7C199.241 28.2533 197.421 27.53 195.134 27.53C192.847 27.53 191.027 28.2533 189.674 29.7C188.321 31.1467 187.644 33.1767 187.644 35.79V57H175.674V17.94H187.644V23.12C188.857 21.3933 190.491 20.04 192.544 19.06C194.597 18.0333 196.907 17.52 199.474 17.52Z" fill="white"/>
<path d="M228.862 13.88C226.762 13.88 225.035 13.2733 223.682 12.06C222.375 10.8 221.722 9.26 221.722 7.44C221.722 5.57333 222.375 4.03333 223.682 2.81999C225.035 1.55999 226.762 0.929993 228.862 0.929993C230.915 0.929993 232.595 1.55999 233.902 2.81999C235.255 4.03333 235.932 5.57333 235.932 7.44C235.932 9.26 235.255 10.8 233.902 12.06C232.595 13.2733 230.915 13.88 228.862 13.88ZM234.812 17.94V57H222.842V17.94H234.812Z" fill="white"/>
<path d="M254.686 47.13H271.626V57H241.316V47.48L257.556 27.81H241.456V17.94H271.276V27.46L254.686 47.13Z" fill="white"/>
<path d="M275.833 37.4C275.833 33.3867 276.58 29.8633 278.073 26.83C279.613 23.7967 281.69 21.4633 284.303 19.83C286.916 18.1967 289.833 17.38 293.053 17.38C295.806 17.38 298.21 17.94 300.263 19.06C302.363 20.18 303.973 21.65 305.093 23.47V17.94H317.063V57H305.093V51.47C303.926 53.29 302.293 54.76 300.193 55.88C298.14 57 295.736 57.56 292.983 57.56C289.81 57.56 286.916 56.7433 284.303 55.11C281.69 53.43 279.613 51.0733 278.073 48.04C276.58 44.96 275.833 41.4133 275.833 37.4ZM305.093 37.47C305.093 34.4833 304.253 32.1267 302.573 30.4C300.94 28.6733 298.933 27.81 296.553 27.81C294.173 27.81 292.143 28.6733 290.463 30.4C288.83 32.08 288.013 34.4133 288.013 37.4C288.013 40.3867 288.83 42.7667 290.463 44.54C292.143 46.2667 294.173 47.13 296.553 47.13C298.933 47.13 300.94 46.2667 302.573 44.54C304.253 42.8133 305.093 40.4567 305.093 37.47Z" fill="white"/>
<path d="M33.09 102.8C35.9367 103.407 38.2233 104.83 39.95 107.07C41.6767 109.263 42.54 111.783 42.54 114.63C42.54 118.737 41.0933 122.003 38.2 124.43C35.3533 126.81 31.3633 128 26.23 128H3.33999V78.86H25.46C30.4533 78.86 34.35 80.0033 37.15 82.29C39.9967 84.5767 41.42 87.68 41.42 91.6C41.42 94.4933 40.65 96.8967 39.11 98.81C37.6167 100.723 35.61 102.053 33.09 102.8ZM15.31 98.74H23.15C25.11 98.74 26.6033 98.32 27.63 97.48C28.7033 96.5933 29.24 95.31 29.24 93.63C29.24 91.95 28.7033 90.6667 27.63 89.78C26.6033 88.8933 25.11 88.45 23.15 88.45H15.31V98.74ZM24.13 118.34C26.1367 118.34 27.6767 117.897 28.75 117.01C29.87 116.077 30.43 114.747 30.43 113.02C30.43 111.293 29.8467 109.94 28.68 108.96C27.56 107.98 25.9967 107.49 23.99 107.49H15.31V118.34H24.13Z" fill="white"/>
<path d="M61.4526 95.45C62.8526 93.3033 64.6026 91.6233 66.7026 90.41C68.8026 89.15 71.1359 88.52 73.7026 88.52V101.19H70.4126C67.4259 101.19 65.1859 101.843 63.6926 103.15C62.1992 104.41 61.4526 106.65 61.4526 109.87V128H49.4826V88.94H61.4526V95.45Z" fill="white"/>
<path d="M77.044 108.4C77.044 104.387 77.7906 100.863 79.284 97.83C80.824 94.7967 82.9006 92.4633 85.514 90.83C88.1273 89.1967 91.044 88.38 94.264 88.38C97.0173 88.38 99.4206 88.94 101.474 90.06C103.574 91.18 105.184 92.65 106.304 94.47V88.94H118.274V128H106.304V122.47C105.137 124.29 103.504 125.76 101.404 126.88C99.3506 128 96.9473 128.56 94.194 128.56C91.0206 128.56 88.1273 127.743 85.514 126.11C82.9006 124.43 80.824 122.073 79.284 119.04C77.7906 115.96 77.044 112.413 77.044 108.4ZM106.304 108.47C106.304 105.483 105.464 103.127 103.784 101.4C102.151 99.6733 100.144 98.81 97.764 98.81C95.384 98.81 93.354 99.6733 91.674 101.4C90.0406 103.08 89.224 105.413 89.224 108.4C89.224 111.387 90.0406 113.767 91.674 115.54C93.354 117.267 95.384 118.13 97.764 118.13C100.144 118.13 102.151 117.267 103.784 115.54C105.464 113.813 106.304 111.457 106.304 108.47Z" fill="white"/>
<path d="M142.824 128.56C139.417 128.56 136.384 127.977 133.724 126.81C131.064 125.643 128.964 124.057 127.424 122.05C125.884 119.997 125.02 117.71 124.834 115.19H136.664C136.804 116.543 137.434 117.64 138.554 118.48C139.674 119.32 141.05 119.74 142.684 119.74C144.177 119.74 145.32 119.46 146.114 118.9C146.954 118.293 147.374 117.523 147.374 116.59C147.374 115.47 146.79 114.653 145.624 114.14C144.457 113.58 142.567 112.973 139.954 112.32C137.154 111.667 134.82 110.99 132.954 110.29C131.087 109.543 129.477 108.4 128.124 106.86C126.77 105.273 126.094 103.15 126.094 100.49C126.094 98.25 126.7 96.22 127.914 94.4C129.174 92.5333 130.994 91.0633 133.374 89.99C135.8 88.9167 138.67 88.38 141.984 88.38C146.884 88.38 150.734 89.5933 153.534 92.02C156.38 94.4467 158.014 97.6667 158.434 101.68H147.374C147.187 100.327 146.58 99.2533 145.554 98.46C144.574 97.6667 143.267 97.27 141.634 97.27C140.234 97.27 139.16 97.55 138.414 98.11C137.667 98.6233 137.294 99.3467 137.294 100.28C137.294 101.4 137.877 102.24 139.044 102.8C140.257 103.36 142.124 103.92 144.644 104.48C147.537 105.227 149.894 105.973 151.714 106.72C153.534 107.42 155.12 108.587 156.474 110.22C157.874 111.807 158.597 113.953 158.644 116.66C158.644 118.947 157.99 121 156.684 122.82C155.424 124.593 153.58 125.993 151.154 127.02C148.774 128.047 145.997 128.56 142.824 128.56Z" fill="white"/>
<path d="M171.987 84.88C169.887 84.88 168.16 84.2733 166.807 83.06C165.5 81.8 164.847 80.26 164.847 78.44C164.847 76.5733 165.5 75.0333 166.807 73.82C168.16 72.56 169.887 71.93 171.987 71.93C174.04 71.93 175.72 72.56 177.027 73.82C178.38 75.0333 179.057 76.5733 179.057 78.44C179.057 80.26 178.38 81.8 177.027 83.06C175.72 84.2733 174.04 84.88 171.987 84.88ZM177.937 88.94V128H165.967V88.94H177.937Z" fill="white"/>
<path d="M198.581 76.2V128H186.611V76.2H198.581Z" fill="white"/>
<path d="M8.93999 199.56C6.83999 199.56 5.11333 198.953 3.75999 197.74C2.45333 196.48 1.79999 194.94 1.79999 193.12C1.79999 191.253 2.45333 189.69 3.75999 188.43C5.11333 187.17 6.83999 186.54 8.93999 186.54C10.9933 186.54 12.6733 187.17 13.98 188.43C15.3333 189.69 16.01 191.253 16.01 193.12C16.01 194.94 15.3333 196.48 13.98 197.74C12.6733 198.953 10.9933 199.56 8.93999 199.56Z" fill="#0968C1"/>
<path d="M37.9359 159.38C40.6892 159.38 43.0925 159.94 45.1459 161.06C47.2459 162.18 48.8559 163.65 49.9759 165.47V159.94H61.9459V198.93C61.9459 202.523 61.2225 205.767 59.7759 208.66C58.3759 211.6 56.2059 213.933 53.2659 215.66C50.3725 217.387 46.7559 218.25 42.4159 218.25C36.6292 218.25 31.9392 216.873 28.3459 214.12C24.7525 211.413 22.6992 207.727 22.1859 203.06H34.0159C34.3892 204.553 35.2759 205.72 36.6759 206.56C38.0759 207.447 39.8025 207.89 41.8559 207.89C44.3292 207.89 46.2892 207.167 47.7359 205.72C49.2292 204.32 49.9759 202.057 49.9759 198.93V193.4C48.8092 195.22 47.1992 196.713 45.1459 197.88C43.0925 199 40.6892 199.56 37.9359 199.56C34.7159 199.56 31.7992 198.743 29.1859 197.11C26.5725 195.43 24.4959 193.073 22.9559 190.04C21.4625 186.96 20.7159 183.413 20.7159 179.4C20.7159 175.387 21.4625 171.863 22.9559 168.83C24.4959 165.797 26.5725 163.463 29.1859 161.83C31.7992 160.197 34.7159 159.38 37.9359 159.38ZM49.9759 179.47C49.9759 176.483 49.1359 174.127 47.4559 172.4C45.8225 170.673 43.8159 169.81 41.4359 169.81C39.0559 169.81 37.0259 170.673 35.3459 172.4C33.7125 174.08 32.8959 176.413 32.8959 179.4C32.8959 182.387 33.7125 184.767 35.3459 186.54C37.0259 188.267 39.0559 189.13 41.4359 189.13C43.8159 189.13 45.8225 188.267 47.4559 186.54C49.1359 184.813 49.9759 182.457 49.9759 179.47Z" fill="#0968C1"/>
<path d="M88.3856 199.56C84.559 199.56 81.1056 198.743 78.0256 197.11C74.9923 195.477 72.589 193.143 70.8156 190.11C69.089 187.077 68.2256 183.53 68.2256 179.47C68.2256 175.457 69.1123 171.933 70.8856 168.9C72.659 165.82 75.0856 163.463 78.1656 161.83C81.2456 160.197 84.699 159.38 88.5256 159.38C92.3523 159.38 95.8056 160.197 98.8856 161.83C101.966 163.463 104.392 165.82 106.166 168.9C107.939 171.933 108.826 175.457 108.826 179.47C108.826 183.483 107.916 187.03 106.096 190.11C104.322 193.143 101.872 195.477 98.7456 197.11C95.6656 198.743 92.2123 199.56 88.3856 199.56ZM88.3856 189.2C90.6723 189.2 92.609 188.36 94.1956 186.68C95.829 185 96.6456 182.597 96.6456 179.47C96.6456 176.343 95.8523 173.94 94.2656 172.26C92.7256 170.58 90.8123 169.74 88.5256 169.74C86.1923 169.74 84.2556 170.58 82.7156 172.26C81.1756 173.893 80.4056 176.297 80.4056 179.47C80.4056 182.597 81.1523 185 82.6456 186.68C84.1856 188.36 86.099 189.2 88.3856 189.2Z" fill="#0968C1"/>
<path d="M132.746 187.8L141.216 159.94H153.956L140.096 199H125.326L111.466 159.94H124.276L132.746 187.8Z" fill="#0968C1"/>
</svg>
