<svg width="317" height="218" viewBox="0 0 317 218" fill="none" xmlns="http://www.w3.org/2000/svg">
<path d="M38.01 6.93V16.52H24.99V56.07H13.02V16.52H0V6.93H38.01Z" fill="#0968C1"/>
<path d="M61.7974 56.63C57.9708 56.63 54.5174 55.8133 51.4374 54.18C48.4041 52.5467 46.0008 50.2133 44.2274 47.18C42.5008 44.1467 41.6374 40.6 41.6374 36.54C41.6374 32.5267 42.5241 29.0033 44.2974 25.97C46.0708 22.89 48.4974 20.5333 51.5774 18.9C54.6574 17.2667 58.1108 16.45 61.9374 16.45C65.7641 16.45 69.2174 17.2667 72.2974 18.9C75.3774 20.5333 77.8041 22.89 79.5774 25.97C81.3508 29.0033 82.2374 32.5267 82.2374 36.54C82.2374 40.5533 81.3274 44.1 79.5074 47.18C77.7341 50.2133 75.2841 52.5467 72.1574 54.18C69.0774 55.8133 65.6241 56.63 61.7974 56.63ZM61.7974 46.27C64.0841 46.27 66.0208 45.43 67.6074 43.75C69.2408 42.07 70.0574 39.6667 70.0574 36.54C70.0574 33.4133 69.2641 31.01 67.6774 29.33C66.1374 27.65 64.2241 26.81 61.9374 26.81C59.6041 26.81 57.6674 27.65 56.1274 29.33C54.5874 30.9633 53.8174 33.3667 53.8174 36.54C53.8174 39.6667 54.5641 42.07 56.0574 43.75C57.5974 45.43 59.5108 46.27 61.7974 46.27Z" fill="#0968C1"/>
<path d="M112.458 56.07L100.558 39.69V56.07H88.5877V4.27H100.558V32.9L112.388 17.01H127.158L110.918 36.61L127.298 56.07H112.458Z" fill="#0968C1"/>
<path d="M168.679 35.91C168.679 37.03 168.609 38.1967 168.469 39.41H141.379C141.566 41.8367 142.336 43.7033 143.689 45.01C145.089 46.27 146.793 46.9 148.799 46.9C151.786 46.9 153.863 45.64 155.029 43.12H167.769C167.116 45.6867 165.926 47.9967 164.199 50.05C162.519 52.1033 160.396 53.7133 157.829 54.88C155.263 56.0467 152.393 56.63 149.219 56.63C145.393 56.63 141.986 55.8133 138.999 54.18C136.013 52.5467 133.679 50.2133 131.999 47.18C130.319 44.1467 129.479 40.6 129.479 36.54C129.479 32.48 130.296 28.9333 131.929 25.9C133.609 22.8667 135.943 20.5333 138.929 18.9C141.916 17.2667 145.346 16.45 149.219 16.45C152.999 16.45 156.359 17.2433 159.299 18.83C162.239 20.4167 164.526 22.68 166.159 25.62C167.839 28.56 168.679 31.99 168.679 35.91ZM156.429 32.76C156.429 30.7067 155.729 29.0733 154.329 27.86C152.929 26.6467 151.179 26.04 149.079 26.04C147.073 26.04 145.369 26.6233 143.969 27.79C142.616 28.9567 141.776 30.6133 141.449 32.76H156.429Z" fill="#0968C1"/>
<path d="M198.794 16.59C203.367 16.59 207.007 18.0833 209.714 21.07C212.467 24.01 213.844 28.07 213.844 33.25V56.07H201.944V34.86C201.944 32.2467 201.267 30.2167 199.914 28.77C198.561 27.3233 196.741 26.6 194.454 26.6C192.167 26.6 190.347 27.3233 188.994 28.77C187.641 30.2167 186.964 32.2467 186.964 34.86V56.07H174.994V17.01H186.964V22.19C188.177 20.4633 189.811 19.11 191.864 18.13C193.917 17.1033 196.227 16.59 198.794 16.59Z" fill="#0968C1"/>
<path d="M228.182 12.95C226.082 12.95 224.355 12.3433 223.002 11.13C221.695 9.87 221.042 8.33 221.042 6.51C221.042 4.64334 221.695 3.10334 223.002 1.89C224.355 0.63 226.082 0 228.182 0C230.235 0 231.915 0.63 233.222 1.89C234.575 3.10334 235.252 4.64334 235.252 6.51C235.252 8.33 234.575 9.87 233.222 11.13C231.915 12.3433 230.235 12.95 228.182 12.95ZM234.132 17.01V56.07H222.162V17.01H234.132Z" fill="#0968C1"/>
<path d="M254.006 46.2H270.946V56.07H240.636V46.55L256.876 26.88H240.776V17.01H270.596V26.53L254.006 46.2Z" fill="#0968C1"/>
<path d="M275.153 36.47C275.153 32.4567 275.9 28.9333 277.393 25.9C278.933 22.8667 281.01 20.5333 283.623 18.9C286.236 17.2667 289.153 16.45 292.373 16.45C295.126 16.45 297.53 17.01 299.583 18.13C301.683 19.25 303.293 20.72 304.413 22.54V17.01H316.383V56.07H304.413V50.54C303.246 52.36 301.613 53.83 299.513 54.95C297.46 56.07 295.056 56.63 292.303 56.63C289.13 56.63 286.236 55.8133 283.623 54.18C281.01 52.5 278.933 50.1433 277.393 47.11C275.9 44.03 275.153 40.4833 275.153 36.47ZM304.413 36.54C304.413 33.5533 303.573 31.1967 301.893 29.47C300.26 27.7433 298.253 26.88 295.873 26.88C293.493 26.88 291.463 27.7433 289.783 29.47C288.15 31.15 287.333 33.4833 287.333 36.47C287.333 39.4567 288.15 41.8367 289.783 43.61C291.463 45.3367 293.493 46.2 295.873 46.2C298.253 46.2 300.26 45.3367 301.893 43.61C303.573 41.8833 304.413 39.5267 304.413 36.54Z" fill="#0968C1"/>
<path d="M32.41 101.87C35.2567 102.477 37.5433 103.9 39.27 106.14C40.9967 108.333 41.86 110.853 41.86 113.7C41.86 117.807 40.4133 121.073 37.52 123.5C34.6733 125.88 30.6833 127.07 25.55 127.07H2.66V77.93H24.78C29.7733 77.93 33.67 79.0733 36.47 81.36C39.3167 83.6467 40.74 86.75 40.74 90.67C40.74 93.5633 39.97 95.9667 38.43 97.88C36.9367 99.7933 34.93 101.123 32.41 101.87ZM14.63 97.81H22.47C24.43 97.81 25.9233 97.39 26.95 96.55C28.0233 95.6633 28.56 94.38 28.56 92.7C28.56 91.02 28.0233 89.7367 26.95 88.85C25.9233 87.9633 24.43 87.52 22.47 87.52H14.63V97.81ZM23.45 117.41C25.4567 117.41 26.9967 116.967 28.07 116.08C29.19 115.147 29.75 113.817 29.75 112.09C29.75 110.363 29.1667 109.01 28 108.03C26.88 107.05 25.3167 106.56 23.31 106.56H14.63V117.41H23.45Z" fill="#0968C1"/>
<path d="M60.7726 94.52C62.1726 92.3733 63.9226 90.6933 66.0226 89.48C68.1226 88.22 70.4559 87.59 73.0226 87.59V100.26H69.7326C66.7459 100.26 64.5059 100.913 63.0126 102.22C61.5192 103.48 60.7726 105.72 60.7726 108.94V127.07H48.8026V88.01H60.7726V94.52Z" fill="#0968C1"/>
<path d="M76.364 107.47C76.364 103.457 77.1106 99.9333 78.604 96.9C80.144 93.8667 82.2207 91.5333 84.834 89.9C87.4473 88.2667 90.364 87.45 93.584 87.45C96.3373 87.45 98.7407 88.01 100.794 89.13C102.894 90.25 104.504 91.72 105.624 93.54V88.01H117.594V127.07H105.624V121.54C104.457 123.36 102.824 124.83 100.724 125.95C98.6707 127.07 96.2673 127.63 93.514 127.63C90.3407 127.63 87.4473 126.813 84.834 125.18C82.2207 123.5 80.144 121.143 78.604 118.11C77.1106 115.03 76.364 111.483 76.364 107.47ZM105.624 107.54C105.624 104.553 104.784 102.197 103.104 100.47C101.471 98.7433 99.464 97.88 97.084 97.88C94.704 97.88 92.674 98.7433 90.994 100.47C89.3607 102.15 88.544 104.483 88.544 107.47C88.544 110.457 89.3607 112.837 90.994 114.61C92.674 116.337 94.704 117.2 97.084 117.2C99.464 117.2 101.471 116.337 103.104 114.61C104.784 112.883 105.624 110.527 105.624 107.54Z" fill="#0968C1"/>
<path d="M142.144 127.63C138.737 127.63 135.704 127.047 133.044 125.88C130.384 124.713 128.284 123.127 126.744 121.12C125.204 119.067 124.34 116.78 124.154 114.26H135.984C136.124 115.613 136.754 116.71 137.874 117.55C138.994 118.39 140.37 118.81 142.004 118.81C143.497 118.81 144.64 118.53 145.434 117.97C146.274 117.363 146.694 116.593 146.694 115.66C146.694 114.54 146.11 113.723 144.944 113.21C143.777 112.65 141.887 112.043 139.274 111.39C136.474 110.737 134.14 110.06 132.274 109.36C130.407 108.613 128.797 107.47 127.444 105.93C126.09 104.343 125.414 102.22 125.414 99.56C125.414 97.32 126.02 95.29 127.234 93.47C128.494 91.6033 130.314 90.1333 132.694 89.06C135.12 87.9867 137.99 87.45 141.304 87.45C146.204 87.45 150.054 88.6633 152.854 91.09C155.7 93.5167 157.334 96.7367 157.754 100.75H146.694C146.507 99.3967 145.9 98.3233 144.874 97.53C143.894 96.7367 142.587 96.34 140.954 96.34C139.554 96.34 138.48 96.62 137.734 97.18C136.987 97.6933 136.614 98.4167 136.614 99.35C136.614 100.47 137.197 101.31 138.364 101.87C139.577 102.43 141.444 102.99 143.964 103.55C146.857 104.297 149.214 105.043 151.034 105.79C152.854 106.49 154.44 107.657 155.794 109.29C157.194 110.877 157.917 113.023 157.964 115.73C157.964 118.017 157.31 120.07 156.004 121.89C154.744 123.663 152.9 125.063 150.474 126.09C148.094 127.117 145.317 127.63 142.144 127.63Z" fill="#0968C1"/>
<path d="M171.307 83.95C169.207 83.95 167.48 83.3433 166.127 82.13C164.82 80.87 164.167 79.33 164.167 77.51C164.167 75.6433 164.82 74.1033 166.127 72.89C167.48 71.63 169.207 71 171.307 71C173.36 71 175.04 71.63 176.347 72.89C177.7 74.1033 178.377 75.6433 178.377 77.51C178.377 79.33 177.7 80.87 176.347 82.13C175.04 83.3433 173.36 83.95 171.307 83.95ZM177.257 88.01V127.07H165.287V88.01H177.257Z" fill="#0968C1"/>
<path d="M197.901 75.27V127.07H185.931V75.27H197.901Z" fill="#0968C1"/>
<path d="M8.26 198.63C6.16 198.63 4.43333 198.023 3.08 196.81C1.77333 195.55 1.12 194.01 1.12 192.19C1.12 190.323 1.77333 188.76 3.08 187.5C4.43333 186.24 6.16 185.61 8.26 185.61C10.3133 185.61 11.9933 186.24 13.3 187.5C14.6533 188.76 15.33 190.323 15.33 192.19C15.33 194.01 14.6533 195.55 13.3 196.81C11.9933 198.023 10.3133 198.63 8.26 198.63Z" fill="#0968C1"/>
<path d="M37.2559 158.45C40.0092 158.45 42.4125 159.01 44.4659 160.13C46.5659 161.25 48.1759 162.72 49.2959 164.54V159.01H61.2659V198C61.2659 201.593 60.5425 204.837 59.0959 207.73C57.6959 210.67 55.5259 213.003 52.5859 214.73C49.6925 216.457 46.0759 217.32 41.7359 217.32C35.9492 217.32 31.2592 215.943 27.6659 213.19C24.0725 210.483 22.0192 206.797 21.5059 202.13H33.3359C33.7092 203.623 34.5959 204.79 35.9959 205.63C37.3959 206.517 39.1225 206.96 41.1759 206.96C43.6492 206.96 45.6092 206.237 47.0559 204.79C48.5492 203.39 49.2959 201.127 49.2959 198V192.47C48.1292 194.29 46.5192 195.783 44.4659 196.95C42.4125 198.07 40.0092 198.63 37.2559 198.63C34.0359 198.63 31.1192 197.813 28.5059 196.18C25.8925 194.5 23.8159 192.143 22.2759 189.11C20.7825 186.03 20.0359 182.483 20.0359 178.47C20.0359 174.457 20.7825 170.933 22.2759 167.9C23.8159 164.867 25.8925 162.533 28.5059 160.9C31.1192 159.267 34.0359 158.45 37.2559 158.45ZM49.2959 178.54C49.2959 175.553 48.4559 173.197 46.7759 171.47C45.1425 169.743 43.1359 168.88 40.7559 168.88C38.3759 168.88 36.3459 169.743 34.6659 171.47C33.0325 173.15 32.2159 175.483 32.2159 178.47C32.2159 181.457 33.0325 183.837 34.6659 185.61C36.3459 187.337 38.3759 188.2 40.7559 188.2C43.1359 188.2 45.1425 187.337 46.7759 185.61C48.4559 183.883 49.2959 181.527 49.2959 178.54Z" fill="#0968C1"/>
<path d="M87.7056 198.63C83.879 198.63 80.4256 197.813 77.3456 196.18C74.3123 194.547 71.909 192.213 70.1356 189.18C68.409 186.147 67.5456 182.6 67.5456 178.54C67.5456 174.527 68.4323 171.003 70.2056 167.97C71.979 164.89 74.4056 162.533 77.4856 160.9C80.5656 159.267 84.019 158.45 87.8456 158.45C91.6723 158.45 95.1256 159.267 98.2056 160.9C101.286 162.533 103.712 164.89 105.486 167.97C107.259 171.003 108.146 174.527 108.146 178.54C108.146 182.553 107.236 186.1 105.416 189.18C103.642 192.213 101.192 194.547 98.0656 196.18C94.9856 197.813 91.5323 198.63 87.7056 198.63ZM87.7056 188.27C89.9923 188.27 91.929 187.43 93.5156 185.75C95.149 184.07 95.9656 181.667 95.9656 178.54C95.9656 175.413 95.1723 173.01 93.5856 171.33C92.0456 169.65 90.1323 168.81 87.8456 168.81C85.5123 168.81 83.5756 169.65 82.0356 171.33C80.4956 172.963 79.7256 175.367 79.7256 178.54C79.7256 181.667 80.4723 184.07 81.9656 185.75C83.5056 187.43 85.419 188.27 87.7056 188.27Z" fill="#0968C1"/>
<path d="M132.066 186.87L140.536 159.01H153.276L139.416 198.07H124.646L110.786 159.01H123.596L132.066 186.87Z" fill="#0968C1"/>
</svg>
