<svg xmlns="http://www.w3.org/2000/svg" xmlns:xlink="http://www.w3.org/1999/xlink" id="Layer_1" data-name="Layer 1" viewBox="0 0 1632.59 358.74"><defs fill="#5d5d5c"><style>.cls-1{fill:url(#linear-gradient);}.cls-2{fill:url(#linear-gradient-3);}.cls-3{fill:url(#linear-gradient-13);}.cls-4{fill:url(#linear-gradient-14);}.cls-5{fill:#5d5d5c;}</style><linearGradient id="linear-gradient" x1="1853.37" y1="1044.12" x2="826.12" y2="1044.12" gradientUnits="userSpaceOnUse" fill="#5d5d5c"><stop offset="0" stop-color="#5d5d5c" fill="#5d5d5c"/><stop offset="1" stop-color="#5d5d5c" fill="#5d5d5c"/></linearGradient><linearGradient id="linear-gradient-3" x1="1853.37" y1="1043.96" x2="826.12" y2="1043.96" xlink:href="#linear-gradient" fill="#5d5d5c"/><linearGradient id="linear-gradient-13" x1="123.79" y1="1008.24" x2="426.72" y2="715.81" gradientUnits="userSpaceOnUse" fill="#5d5d5c"><stop offset="0.01" stop-color="#5d5d5c" fill="#5d5d5c"/><stop offset="1" stop-color="#5d5d5c" fill="#5d5d5c"/></linearGradient><linearGradient id="linear-gradient-14" x1="235.66" y1="1124.14" x2="538.6" y2="831.71" xlink:href="#linear-gradient-13" fill="#5d5d5c"/></defs><path class="cls-1" d="M689.49,1017.71v13.46H666v39.37H649.1v-39.37H625.58v-13.46Z" transform="translate(-155.29 -737.29)" fill="#5d5d5c"/><path class="cls-1" d="M784.45,1020.56c4,3.09,5.23,8.4,5.23,23.52s-1.19,20.52-5.23,23.61-9,3.64-30.89,3.64c-22.25,0-27.17-.55-31.2-3.64s-5.23-8.4-5.23-23.92c0-14.74,1.19-20.12,5.23-23.21s8.95-3.64,31-3.64S780.41,1017.47,784.45,1020.56Zm-50,13.39c-1,1.82-1.26,4.83-1.26,11.56,0,6.57.47,8.71,2.37,10.22,2.14,1.66,4.68,1.9,18,1.9,12.91,0,15.53-.32,17.67-1.9,1.82-1.43,2.37-3.73,2.37-10.14,0-7.84-.47-10.85-1.9-12.6-1.82-2.13-3.56-2.37-18.3-2.37C737.56,1030.62,736.06,1030.86,734.47,1034Z" transform="translate(-155.29 -737.29)" fill="#5d5d5c"/><path class="cls-2" d="M836.09,1017.71v19.17h8.79l20.91-19.49h24.63l-30.57,26.22L893,1070.54h-24.4l-23.68-20.2h-8.79v20.2H820v-52.83Z" transform="translate(-155.29 -737.29)" fill="#5d5d5c"/><path class="cls-1" d="M977.54,1017.71v12.43H934.93v7.69H975.4v11.64H934.93v8.4h42.93v12.67H919.09v-52.83Z" transform="translate(-155.29 -737.29)" fill="#5d5d5c"/><path class="cls-1" d="M1035.11,1017.71l27.65,39.36h1.66l-.4-39.36h16.4v52.83h-28l-27.8-39.45h-1.74l.39,39.45h-16.39v-52.83Z" transform="translate(-155.29 -737.29)" fill="#5d5d5c"/><path class="cls-1" d="M1221.87,1050.18c.08,3,.16,4.2.16,5,0,8.56-2.22,12.44-8.08,14.34-4.28,1.34-10.06,1.82-21.78,1.82-20.68,0-27.33-.63-31.61-3.09-3.48-2-5.07-4.91-5.7-10.3-.24-2.37-.4-6.73-.4-13.46,0-11.8.32-16.16,1.51-19.09,2.85-7.13,8.63-8.47,36.27-8.47,14.1,0,19,.55,22.66,2.45,4.51,2.3,6.1,6.18,6.1,14.65v2.62h-16.08c-.16-3.49-.32-4.2-1.27-5-1.19-1-5.86-1.51-16-1.51s-13,.32-14.57,1.59c-1.9,1.58-2.54,4.67-2.54,12.67,0,13.54.24,13.7,17.19,13.7,17.66,0,17.9-.08,18-7.92Z" transform="translate(-155.29 -737.29)" fill="#5d5d5c"/><path class="cls-1" d="M1251.56,1017.71h38.89c18.22,0,18.22,0,21.62,2.06,4,2.45,5.23,5.94,5.23,15.13,0,7.84-.79,10.85-3.64,13-1.51,1.18-3,1.74-6.18,2.21,8.16,1,9.58,3.33,9.27,15.53v4.91h-15.84v-2.77c0-5.94-.32-7.85-1.59-9.19-1.11-1.27-2.29-1.43-9-1.43h-22.73v13.39h-16.08Zm38.73,26.21c8.08-.15,8.08-.15,9.19-1,1.27-.79,1.74-2.37,1.74-5.7,0-3.56-.63-5.07-2.29-5.78-1.11-.48-1.35-.48-8.64-.55h-22.65v13Z" transform="translate(-155.29 -737.29)" fill="#5d5d5c"/><path class="cls-1" d="M1405.29,1017.71v12.43h-42.61v7.69h40.47v11.64h-40.47v8.4h42.93v12.67h-58.77v-52.83Z" transform="translate(-155.29 -737.29)" fill="#5d5d5c"/><path class="cls-1" d="M1487.42,1061.59h-34.93l-4.51,9H1429.6l28-52.83h25l27.64,52.83h-18.3ZM1471.58,1030h-3.17l-10.22,20h23.61Z" transform="translate(-155.29 -737.29)" fill="#5d5d5c"/><path class="cls-1" d="M1589.9,1017.71v13.46h-23.52v39.37h-16.87v-39.37H1526v-13.46Z" transform="translate(-155.29 -737.29)" fill="#5d5d5c"/><path class="cls-1" d="M1684.86,1020.56c4,3.09,5.23,8.4,5.23,23.52s-1.19,20.52-5.23,23.61-9,3.64-30.89,3.64c-22.26,0-27.17-.55-31.21-3.64s-5.22-8.4-5.22-23.92c0-14.74,1.18-20.12,5.22-23.21s9-3.64,31-3.64S1680.82,1017.47,1684.86,1020.56Zm-50,13.39c-1,1.82-1.27,4.83-1.27,11.56,0,6.57.48,8.71,2.38,10.22,2.14,1.66,4.67,1.9,18,1.9,12.91,0,15.52-.32,17.66-1.9,1.83-1.43,2.38-3.73,2.38-10.14,0-7.84-.48-10.85-1.9-12.6-1.82-2.13-3.57-2.37-18.3-2.37C1638,1030.62,1636.47,1030.86,1634.88,1034Z" transform="translate(-155.29 -737.29)" fill="#5d5d5c"/><path class="cls-1" d="M1720.42,1017.71h38.89c18.21,0,18.21,0,21.62,2.06,4,2.45,5.23,5.94,5.23,15.13,0,7.84-.8,10.85-3.65,13-1.5,1.18-3,1.74-6.18,2.21,8.16,1,9.59,3.33,9.27,15.53v4.91h-15.84v-2.77c0-5.94-.32-7.85-1.58-9.19s-2.3-1.43-9-1.43h-22.74v13.39h-16.07Zm38.73,26.21c8.08-.15,8.08-.15,9.19-1,1.26-.79,1.74-2.37,1.74-5.7,0-3.56-.64-5.07-2.3-5.78-1.11-.48-1.35-.48-8.63-.55h-22.66v13Z" transform="translate(-155.29 -737.29)" fill="#5d5d5c"/><path class="cls-3" d="M255.13,1001.3,274,901.79h97.7L379.48,861h-34l5.55-29.24H385l17.91-94.43H230.63a75.34,75.34,0,0,0-75.34,75.34v208.06A75.34,75.34,0,0,0,230.63,1096h6.49Zm-59.68-50a50.68,50.68,0,0,1,.89-9.41l13.21-69.59a49.88,49.88,0,0,1,49-40.58h77.79L330.8,861H262.17a25.76,25.76,0,0,0-25.31,21L225.6,941.29a25.76,25.76,0,0,0,25.3,30.57l-5.55,29.24A49.91,49.91,0,0,1,195.45,951.31Z" transform="translate(-155.29 -737.29)" fill="#5d5d5c"/><path class="cls-4" d="M438.69,737.29h-6.62l-17.9,94.44L395.31,931H297.6l-7.74,40.82h34l-5.55,29.24h-34l0,.21-18,94.73H438.69A75.34,75.34,0,0,0,514,1020.69V812.63A75.34,75.34,0,0,0,438.69,737.29ZM473,890.92l-13.21,69.59a49.89,49.89,0,0,1-49,40.59H333l5.56-29.25h68.59a25.8,25.8,0,0,0,25.32-21l11.26-59.35A25.76,25.76,0,0,0,418.42,861L424,831.73a49.91,49.91,0,0,1,49.9,49.77A50.7,50.7,0,0,1,473,890.92Z" transform="translate(-155.29 -737.29)" fill="#5d5d5c"/><path class="cls-5" d="M672.35,815.84v12.37H722v37.4H672.35V980.54H629.6V865.61H598.39v-37.4H629.6V815.42q0-31.06,15.12-47.15t43.72-16.09a91,91,0,0,1,21.31,2.48,52.94,52.94,0,0,1,16.77,6.74l-9.07,33.82q-9.36-5.37-22.28-5.37-11,0-16.91,6.6T672.35,815.84Z" transform="translate(-155.29 -737.29)" fill="#5d5d5c"/><path class="cls-5" d="M740.41,785.59A22.9,22.9,0,0,1,748,768.2a26.31,26.31,0,0,1,18.7-7.08q11.13,0,18.62,7.08a23,23,0,0,1,7.5,17.39,23.57,23.57,0,0,1-7.5,17.67,27.72,27.72,0,0,1-37.32,0A23.48,23.48,0,0,1,740.41,785.59ZM788,828.21V980.54H745.22V828.21Z" transform="translate(-155.29 -737.29)" fill="#5d5d5c"/><path class="cls-5" d="M975.5,894.06v86.48H932.74V897.09q0-17.6-8-26.67t-23.1-9.08q-15.39,0-25.43,11t-10,29.29v78.91H823.44V828.21H866.2v20.21a46.5,46.5,0,0,1,18.7-17.73,56.83,56.83,0,0,1,27.22-6.47q29.7,0,46.54,18.49T975.5,894.06Z" transform="translate(-155.29 -737.29)" fill="#5d5d5c"/><path class="cls-5" d="M1003.27,904.24q0-22.54,10.45-40.83a75.1,75.1,0,0,1,29.14-28.74q18.71-10.44,41.8-10.45a85.71,85.71,0,0,1,39.94,9.35,73.79,73.79,0,0,1,28.8,26.12l-35.2,19.66a36,36,0,0,0-14-12.85,41.43,41.43,0,0,0-19.52-4.61q-18,0-29.28,12.1-11.28,11.68-11.28,30.25,0,18.28,11.28,30.38t29.28,12.1a41.31,41.31,0,0,0,19.52-4.61,36,36,0,0,0,14-12.85l35.2,19.38a75.87,75.87,0,0,1-28.87,26.26,84.18,84.18,0,0,1-39.87,9.49,86.13,86.13,0,0,1-32.51-6.12,77.67,77.67,0,0,1-25.92-16.7,75.92,75.92,0,0,1-16.84-25.44A82.87,82.87,0,0,1,1003.27,904.24Z" transform="translate(-155.29 -737.29)" fill="#5d5d5c"/><path class="cls-5" d="M1330.34,894.06v86.48h-42.76V897.09q0-17.6-8-26.67t-23.1-9.08q-15.4,0-25.43,11t-10,29.29v78.91h-42.76V768.41H1221v80a46.5,46.5,0,0,1,18.7-17.73,56.83,56.83,0,0,1,27.22-6.47q29.7,0,46.54,18.49T1330.34,894.06Z" transform="translate(-155.29 -737.29)" fill="#5d5d5c"/><path class="cls-5" d="M1479.5,828.21h42.76V980.54H1479.5V960.19a49.81,49.81,0,0,1-19.79,18,60,60,0,0,1-27.5,6.19,71,71,0,0,1-38.15-10.52A72.15,72.15,0,0,1,1367.6,945q-9.49-18.35-9.49-40.76a86.67,86.67,0,0,1,9.49-40.56,72.81,72.81,0,0,1,26.46-28.87,70.62,70.62,0,0,1,38.15-10.59,60.13,60.13,0,0,1,27.5,6.19,49.88,49.88,0,0,1,19.79,18Zm-.27,76q0-19.11-11.27-30.8-11.28-12.09-28.74-12.1-17.73,0-29.28,12.38-11,12.24-11,30.52,0,18.69,11.21,30.86t29.07,12.17q17.46,0,28.74-12.1T1479.23,904.24Z" transform="translate(-155.29 -737.29)" fill="#5d5d5c"/><path class="cls-5" d="M1552.78,785.59a22.9,22.9,0,0,1,7.56-17.39,26.33,26.33,0,0,1,18.7-7.08q11.14,0,18.63,7.08a23,23,0,0,1,7.49,17.39,23.56,23.56,0,0,1-7.49,17.67,27.74,27.74,0,0,1-37.33,0A23.48,23.48,0,0,1,1552.78,785.59Zm47.57,42.62V980.54h-42.76V828.21Z" transform="translate(-155.29 -737.29)" fill="#5d5d5c"/><path class="cls-5" d="M1787.88,894.06v86.48h-42.76V897.09q0-17.6-8-26.67t-23.09-9.08q-15.4,0-25.44,11t-10,29.29v78.91h-42.76V828.21h42.76v20.21a46.5,46.5,0,0,1,18.7-17.73,56.8,56.8,0,0,1,27.22-6.47q29.68,0,46.53,18.49T1787.88,894.06Z" transform="translate(-155.29 -737.29)" fill="#5d5d5c"/></svg>